<?xml version="1.0" encoding="UTF-8" standalone="no"?>
<!-- Created with Inkscape (http://www.inkscape.org/) -->

<svg
   xmlns:dc="http://purl.org/dc/elements/1.1/"
   xmlns:cc="http://creativecommons.org/ns#"
   xmlns:rdf="http://www.w3.org/1999/02/22-rdf-syntax-ns#"
   xmlns:svg="http://www.w3.org/2000/svg"
   xmlns="http://www.w3.org/2000/svg"
   xmlns:sodipodi="http://sodipodi.sourceforge.net/DTD/sodipodi-0.dtd"
   xmlns:inkscape="http://www.inkscape.org/namespaces/inkscape"
   width="920"
   height="680"
   id="svg2"
   version="1.1"
   inkscape:version="0.48.2 r9819"
   sodipodi:docname="promotional-medium.svg"
   inkscape:export-filename="/Users/steren/Work/prioprepare-web/marketing-chrome-store/promotional-medium.png"
   inkscape:export-xdpi="90"
   inkscape:export-ydpi="90">
  <defs
     id="defs4" />
  <sodipodi:namedview
     id="base"
     pagecolor="#ffffff"
     bordercolor="#666666"
     borderopacity="1.0"
     inkscape:pageopacity="1"
     inkscape:pageshadow="2"
     inkscape:zoom="0.70000001"
     inkscape:cx="180.64589"
     inkscape:cy="266.56713"
     inkscape:document-units="px"
     inkscape:current-layer="layer1"
     showgrid="false"
     inkscape:window-width="1676"
     inkscape:window-height="1006"
     inkscape:window-x="55"
     inkscape:window-y="59"
     inkscape:window-maximized="0"
     fit-margin-top="20"
     fit-margin-left="20"
     fit-margin-right="20"
     fit-margin-bottom="20"
     showguides="true"
     inkscape:guide-bbox="true">
    <sodipodi:guide
       orientation="0,1"
       position="-12.12183,-133.34013"
       id="guide4699" />
    <sodipodi:guide
       orientation="1,0"
       position="1115.2084,258.59905"
       id="guide4701" />
  </sodipodi:namedview>
  <metadata
     id="metadata7">
    <rdf:RDF>
      <cc:Work
         rdf:about="">
        <dc:format>image/svg+xml</dc:format>
        <dc:type
           rdf:resource="http://purl.org/dc/dcmitype/StillImage" />
        <dc:title></dc:title>
      </cc:Work>
    </rdf:RDF>
  </metadata>
  <g
     inkscape:label="Layer 1"
     inkscape:groupmode="layer"
     id="layer1"
     transform="translate(-64.263123,319.8909)">
    <g
       id="g3026"
       transform="matrix(1.4689447,0,0,1.4689447,0.6255382,-282.83249)">
      <g
         transform="matrix(0.89556857,0,0,0.99558662,226.74182,-45.541411)"
         id="g3418">
        <path
           style="fill:#000000;fill-opacity:1;stroke:none"
           d="m 319.51931,298.78839 14.14213,0 0,78.7919 -14.14213,0 z"
           id="rect3398"
           inkscape:connector-curvature="0" />
        <path
           inkscape:connector-curvature="0"
           id="rect3400"
           d="m 349.84619,298.79711 0,13.93222 c 3.9175,-3.90827 8.74643,-6.87525 14.10865,-8.55245 l 0,-5.37977 -14.10865,0 z m 0,65.07453 0,13.72531 14.10865,0 0,-5.17285 c -5.36593,-1.67668 -10.18891,-4.64195 -14.10865,-8.55246 z"
           style="fill:#000000;fill-opacity:1;stroke:none" />
        <path
           style="fill:#000000;fill-opacity:1;stroke:none"
           d="m 410.43295,298.78839 14.14214,0 0,78.7919 -14.14214,0 z"
           id="rect3404"
           inkscape:connector-curvature="0" />
        <path
           style="fill:#000000;stroke:none"
           d="m 292.31193,301.19283 159.47062,0 -79.73531,-38.89088 z"
           id="path3406"
           inkscape:connector-curvature="0" />
        <path
           inkscape:connector-curvature="0"
           id="rect3416"
           d="m 292.24518,380.17912 159.60409,0 0,6.80696 -159.60409,0 z"
           style="fill:#000000;fill-opacity:1;stroke:none" />
        <path
           inkscape:connector-curvature="0"
           style="fill:#000000;fill-opacity:1;stroke:none"
           d="m 394.24823,298.79711 0,13.93222 c -3.91749,-3.90827 -8.74642,-6.87525 -14.10864,-8.55245 l 0,-5.37977 14.10864,0 z m 0,65.07453 0,13.72531 -14.10864,0 0,-5.17285 c 5.36593,-1.67668 10.1889,-4.64195 14.10864,-8.55246 z"
           id="path4695" />
        <path
           style="fill:#000000;fill-opacity:1;stroke:none"
           d="m 301.01854,374.15251 142.05737,0 0,6.80696 -142.05737,0 z"
           id="path4697"
           inkscape:connector-curvature="0" />
      </g>
      <g
         transform="translate(304.47638,240.10909)"
         id="g3309">
        <path
           style="fill:#000000"
           inkscape:connector-curvature="0"
           d="M 42.476,0 H 0 V 100 H 68.75 V 24.085 L 42.476,0 z M 43.75,6.82 61.312,22.917 H 43.75 V 6.82 z M 4.167,95.833 V 4.167 h 35.417 v 22.917 h 25 V 95.833 H 4.167 z"
           id="path3295" />
        <path
           style="fill:#000000"
           inkscape:connector-curvature="0"
           d="m 16.668,52.836 c -0.12,0 -0.241,-0.01 -0.363,-0.032 -1.133,-0.199 -1.89,-1.279 -1.69,-2.413 2.479,-14.08 11.056,-17.686 15.948,-18.581 8.183,-1.493 16.499,2.263 19.144,6.71 0.588,0.989 0.264,2.267 -0.726,2.854 -0.99,0.59 -2.268,0.261 -2.855,-0.727 -1.629,-2.74 -8.212,-5.942 -14.812,-4.74 -4.675,0.856 -10.656,4.191 -12.595,15.208 -0.179,1.009 -1.058,1.721 -2.051,1.721 z"
           id="path3297" />
        <path
           style="fill:#000000"
           inkscape:connector-curvature="0"
           d="m 33.896,78.525 c -0.883,0 -1.781,-0.066 -2.695,-0.205 -8.193,-1.23 -15.325,-7.886 -16.59,-15.479 -0.189,-1.135 0.578,-2.207 1.712,-2.396 1.138,-0.205 2.207,0.58 2.397,1.713 0.965,5.792 6.72,11.082 13.1,12.042 3.468,0.515 9.939,0.118 14.231,-8.465 2.072,-4.145 -0.576,-14.483 -6.122,-19.379 -3.114,-2.749 -6.349,-3.048 -9.609,-0.873 -2.54,1.693 -5.188,6.55 -5.08,11.076 0.084,3.583 1.766,6.382 4.997,8.321 1.097,0.657 4.222,1.076 6.041,-0.206 1.423,-1.003 1.847,-3.001 1.261,-5.933 -0.462,-2.305 -2.57,-6.4 -3.579,-6.543 0.005,0.002 -0.363,0.116 -0.979,1.04 -0.496,0.742 -0.977,3.516 -0.327,4.73 0.121,0.228 0.227,0.364 0.677,0.364 1.15,0 2.083,0.932 2.083,2.083 0,1.151 -0.931,2.085 -2.081,2.085 -1.92,0 -3.465,-0.909 -4.35,-2.563 -1.487,-2.779 -0.678,-7.191 0.533,-9.009 1.878,-2.815 3.893,-3.088 5.254,-2.815 4.713,0.932 6.838,9.725 6.855,9.812 1.171,5.851 -0.956,8.752 -2.946,10.156 -3.359,2.368 -8.306,1.739 -10.584,0.372 -5.65,-3.39 -6.936,-8.284 -7.019,-11.794 -0.153,-6.406 3.458,-12.325 6.935,-14.643 4.814,-3.21 10.166,-2.767 14.678,1.215 6.624,5.848 10.202,18.146 7.091,24.367 -3.528,7.054 -9.222,10.927 -15.884,10.927 z"
           id="path3299" />
        <path
           style="fill:#000000"
           inkscape:connector-curvature="0"
           d="m 33.258,87.354 c -2.129,0 -4.036,-0.297 -5.639,-0.698 -5.237,-1.308 -10.097,-4.532 -12.686,-8.416 -0.638,-0.959 -0.379,-2.251 0.578,-2.89 0.955,-0.639 2.249,-0.378 2.889,0.578 3.396,5.095 14.59,11.381 26.277,3.589 0.957,-0.637 2.25,-0.381 2.889,0.578 0.638,0.958 0.38,2.25 -0.577,2.889 -5.001,3.333 -9.755,4.37 -13.731,4.37 z"
           id="path3301" />
      </g>
      <g
         id="g3007"
         transform="translate(84.263123,240.10909)">
        <path
           id="path3009"
           d="M 42.476,0 H 0 V 100 H 68.75 V 24.085 L 42.476,0 z M 43.75,6.82 61.312,22.917 H 43.75 V 6.82 z M 4.167,95.833 V 4.167 h 35.417 v 22.917 h 25 V 95.833 H 4.167 z"
           inkscape:connector-curvature="0"
           style="fill:#000000" />
      </g>
      <g
         transform="matrix(0.45159954,0,0,0.45159954,210.2771,241.0125)"
         id="g3375">
        <path
           inkscape:connector-curvature="0"
           d="m 34.292,36.742 c 0,-1.402 -0.1,-2.771 -0.296,-4.113 l 4.343,-2.582 -0.091,-0.412 c -0.665,-3.068 -1.756,-5.979 -3.2,-8.674 l -0.21,-0.391 -4.84,1.109 c -1.174,-1.895 -2.569,-3.642 -4.146,-5.208 l 1.974,-4.617 -0.305,-0.268 C 25.221,9.599 22.659,7.919 19.887,6.608 l -0.39,-0.18 -3.272,3.741 C 14.094,9.329 11.842,8.737 9.495,8.429 L 8.381,3.561 7.959,3.532 C 7.224,3.482 6.476,3.447 5.722,3.447 3.395,3.447 1.125,3.691 -1.07,4.144 l -0.422,0.082 -0.449,4.981 c -2.25,0.63 -4.392,1.529 -6.389,2.653 l -3.736,-3.272 -0.365,0.241 c -2.561,1.674 -4.885,3.686 -6.893,5.973 l -0.274,0.316 2.581,4.322 c -1.322,1.727 -2.456,3.629 -3.355,5.641 l -4.937,-0.445 -0.146,0.406 c -1.079,2.855 -1.768,5.906 -2.012,9.076 l -0.032,0.404 4.649,1.988 c -0.005,0.074 -0.005,0.15 -0.005,0.232 0,1.975 0.211,3.914 0.592,5.775 l -4.259,2.535 0.108,0.422 c 0.843,3.105 2.113,6.021 3.76,8.697 l 0.213,0.346 4.944,-1.117 c 1.079,1.488 2.292,2.883 3.636,4.145 l -1.963,4.588 0.326,0.275 c 2.466,2.033 5.227,3.729 8.216,4.996 l 0.376,0.158 3.332,-3.801 c 1.623,0.564 3.337,0.98 5.083,1.238 l 1.112,4.887 0.428,0.029 c 0.866,0.072 1.761,0.123 2.673,0.123 2.385,0 4.71,-0.26 6.956,-0.736 l 0.416,-0.092 0.452,-4.992 c 1.704,-0.484 3.344,-1.127 4.913,-1.904 l 3.796,3.32 0.356,-0.209 c 2.784,-1.641 5.294,-3.668 7.475,-6.008 l 0.301,-0.312 -2.551,-4.273 c 1.188,-1.439 2.225,-3.014 3.11,-4.676 l 5.047,0.459 0.166,-0.383 c 1.257,-2.826 2.131,-5.887 2.561,-9.082 l 0.051,-0.438 -4.562,-1.947 c 0.051,-0.661 0.083,-1.337 0.083,-2.023 z m -19.812,0 c 0,4.84 -3.92,8.758 -8.757,8.764 C 0.88,45.5 -3.033,41.582 -3.04,36.742 c 0.007,-4.838 3.918,-8.748 8.763,-8.762 4.838,0.014 8.757,3.924 8.757,8.762 z"
           id="path3365" />
        <path
           inkscape:connector-curvature="0"
           d="m 71.705,-7.785 -0.102,-0.37 -3.457,-0.023 c -0.485,-1.429 -1.142,-2.804 -1.927,-4.08 l 2.074,-2.829 -0.212,-0.296 c -1.243,-1.719 -2.725,-3.27 -4.397,-4.602 l -0.301,-0.242 -2.821,2.021 c -1.271,-0.89 -2.681,-1.624 -4.174,-2.206 L 56.407,-23.888 56.054,-24 c -0.502,-0.147 -0.996,-0.291 -1.519,-0.417 -1.58,-0.375 -3.166,-0.565 -4.732,-0.617 l -0.384,-0.005 -1.1,3.308 c -1.576,0.073 -3.139,0.333 -4.631,0.759 l -2.011,-2.818 -0.365,0.135 c -2.015,0.724 -3.919,1.723 -5.661,2.967 l -0.296,0.215 1.062,3.346 c -1.137,0.944 -2.177,2.007 -3.087,3.202 l -3.286,-1.093 -0.206,0.327 c -1.189,1.771 -2.151,3.733 -2.826,5.849 l -0.104,0.345 2.838,2.09 c -0.015,0.03 -0.021,0.062 -0.026,0.087 -0.318,1.33 -0.48,2.648 -0.526,3.957 l -3.303,1.043 0.015,0.38 c 0.083,2.253 0.478,4.449 1.169,6.534 l 0.115,0.346 3.538,0.023 c 0.48,1.148 1.059,2.246 1.742,3.294 l -2.065,2.799 0.229,0.301 c 1.361,1.779 2.958,3.382 4.795,4.712 l 0.296,0.215 2.861,-2.044 c 0.984,0.617 2.038,1.149 3.143,1.59 l -0.025,3.502 0.354,0.113 c 0.589,0.183 1.19,0.358 1.805,0.506 1.629,0.381 3.252,0.583 4.86,0.616 l 0.372,0.007 1.102,-3.315 c 1.197,-0.054 2.371,-0.226 3.518,-0.49 l 2.05,2.861 0.354,-0.113 c 2.146,-0.664 4.188,-1.648 6.05,-2.895 l 0.312,-0.212 -1.042,-3.308 c 0.994,-0.772 1.925,-1.636 2.769,-2.587 l 3.347,1.11 0.222,-0.292 c 1.314,-1.716 2.4,-3.662 3.2,-5.769 L 71.118,6.199 68.332,4.153 c 0.134,-0.427 0.244,-0.857 0.351,-1.292 0.22,-0.938 0.37,-1.867 0.453,-2.786 l 3.36,-1.07 v -0.364 c 0,-0.133 0.009,-0.265 0.009,-0.404 -0.005,-2.05 -0.277,-4.078 -0.8,-6.022 z M 55.198,-1.74 c 0,0.46 -0.048,0.919 -0.159,1.384 -0.654,2.757 -3.115,4.624 -5.833,4.624 -0.457,0 -0.912,-0.057 -1.377,-0.169 -2.764,-0.639 -4.617,-3.105 -4.617,-5.825 0,-0.452 0.047,-0.911 0.152,-1.377 0.647,-2.761 3.11,-4.623 5.838,-4.623 0.445,0 0.91,0.05 1.377,0.161 2.752,0.643 4.619,3.113 4.619,5.825 z"
           id="path3367" />
      </g>
      <g
         transform="matrix(0.75025865,0,0,0.75025865,48.926989,57.594547)"
         id="g4650">
        <path
           style="font-size:medium;font-style:normal;font-variant:normal;font-weight:normal;font-stretch:normal;text-indent:0;text-align:start;text-decoration:none;line-height:normal;letter-spacing:normal;word-spacing:normal;text-transform:none;direction:ltr;block-progression:tb;writing-mode:lr-tb;text-anchor:start;baseline-shift:baseline;color:#000000;fill:#000000;fill-opacity:1;stroke:none;stroke-width:5;marker:none;visibility:visible;display:inline;overflow:visible;enable-background:accumulate;font-family:Sans;-inkscape-font-specification:Sans"
           d="m 178.96875,308.40625 0,5 113.96875,0 0,-5 -113.96875,0 z"
           id="path3017"
           inkscape:connector-curvature="0" />
        <path
           inkscape:connector-curvature="0"
           d="m 266.78847,298.809 32.77763,12.05317 -32.77764,12.05316 c 5.2365,-7.11618 5.20633,-16.85235 1e-5,-24.10633 z"
           style="font-size:12px;fill-rule:evenodd;stroke-width:0.625;stroke-linejoin:round"
           id="path4656" />
      </g>
      <g
         transform="matrix(0.75025865,0,0,0.75025865,110.43625,73.119507)"
         id="g4658">
        <path
           inkscape:connector-curvature="0"
           id="path4607"
           d="m 391.875,290.25 0,5 113.96875,0 0,-5 -113.96875,0 z"
           style="font-size:medium;font-style:normal;font-variant:normal;font-weight:normal;font-stretch:normal;text-indent:0;text-align:start;text-decoration:none;line-height:normal;letter-spacing:normal;word-spacing:normal;text-transform:none;direction:ltr;block-progression:tb;writing-mode:lr-tb;text-anchor:start;baseline-shift:baseline;color:#000000;fill:#000000;fill-opacity:1;stroke:none;stroke-width:5;marker:none;visibility:visible;display:inline;overflow:visible;enable-background:accumulate;font-family:Sans;-inkscape-font-specification:Sans" />
        <path
           id="path4664"
           style="font-size:12px;fill-rule:evenodd;stroke-width:0.625;stroke-linejoin:round"
           d="m 479.6971,280.64656 32.77763,12.05317 -32.77764,12.05316 c 5.2365,-7.11618 5.20633,-16.85235 10e-6,-24.10633 z"
           inkscape:connector-curvature="0" />
      </g>
      <g
         id="g4615"
         transform="translate(527.18644,231.35184)">
        <path
           id="path4619"
           d="m 16.668,52.836 c -0.12,0 -0.241,-0.01 -0.363,-0.032 -1.133,-0.199 -1.89,-1.279 -1.69,-2.413 2.479,-14.08 11.056,-17.686 15.948,-18.581 8.183,-1.493 16.499,2.263 19.144,6.71 0.588,0.989 0.264,2.267 -0.726,2.854 -0.99,0.59 -2.268,0.261 -2.855,-0.727 -1.629,-2.74 -8.212,-5.942 -14.812,-4.74 -4.675,0.856 -10.656,4.191 -12.595,15.208 -0.179,1.009 -1.058,1.721 -2.051,1.721 z"
           inkscape:connector-curvature="0"
           style="fill:#000000" />
        <path
           id="path4621"
           d="m 33.896,78.525 c -0.883,0 -1.781,-0.066 -2.695,-0.205 -8.193,-1.23 -15.325,-7.886 -16.59,-15.479 -0.189,-1.135 0.578,-2.207 1.712,-2.396 1.138,-0.205 2.207,0.58 2.397,1.713 0.965,5.792 6.72,11.082 13.1,12.042 3.468,0.515 9.939,0.118 14.231,-8.465 2.072,-4.145 -0.576,-14.483 -6.122,-19.379 -3.114,-2.749 -6.349,-3.048 -9.609,-0.873 -2.54,1.693 -5.188,6.55 -5.08,11.076 0.084,3.583 1.766,6.382 4.997,8.321 1.097,0.657 4.222,1.076 6.041,-0.206 1.423,-1.003 1.847,-3.001 1.261,-5.933 -0.462,-2.305 -2.57,-6.4 -3.579,-6.543 0.005,0.002 -0.363,0.116 -0.979,1.04 -0.496,0.742 -0.977,3.516 -0.327,4.73 0.121,0.228 0.227,0.364 0.677,0.364 1.15,0 2.083,0.932 2.083,2.083 0,1.151 -0.931,2.085 -2.081,2.085 -1.92,0 -3.465,-0.909 -4.35,-2.563 -1.487,-2.779 -0.678,-7.191 0.533,-9.009 1.878,-2.815 3.893,-3.088 5.254,-2.815 4.713,0.932 6.838,9.725 6.855,9.812 1.171,5.851 -0.956,8.752 -2.946,10.156 -3.359,2.368 -8.306,1.739 -10.584,0.372 -5.65,-3.39 -6.936,-8.284 -7.019,-11.794 -0.153,-6.406 3.458,-12.325 6.935,-14.643 4.814,-3.21 10.166,-2.767 14.678,1.215 6.624,5.848 10.202,18.146 7.091,24.367 -3.528,7.054 -9.222,10.927 -15.884,10.927 z"
           inkscape:connector-curvature="0"
           style="fill:#000000" />
        <path
           id="path4623"
           d="m 33.258,87.354 c -2.129,0 -4.036,-0.297 -5.639,-0.698 -5.237,-1.308 -10.097,-4.532 -12.686,-8.416 -0.638,-0.959 -0.379,-2.251 0.578,-2.89 0.955,-0.639 2.249,-0.378 2.889,0.578 3.396,5.095 14.59,11.381 26.277,3.589 0.957,-0.637 2.25,-0.381 2.889,0.578 0.638,0.958 0.38,2.25 -0.577,2.889 -5.001,3.333 -9.755,4.37 -13.731,4.37 z"
           inkscape:connector-curvature="0"
           style="fill:#000000" />
      </g>
      <g
         id="flowRoot4625"
         style="font-size:40px;font-style:normal;font-weight:normal;line-height:125%;letter-spacing:0px;word-spacing:0px;fill:#000000;fill-opacity:1;stroke:none;font-family:Sans"
         transform="matrix(0.59933007,0,0,0.59933007,169.4176,119.03855)">
        <path
           inkscape:connector-curvature="0"
           id="path4634"
           d="m 409.71484,219.15122 c -2.03126,2e-5 -3.5612,1.00263 -4.58984,3.00781 -1.01563,1.99221 -1.52344,4.99351 -1.52344,9.00391 0,3.9974 0.50781,6.9987 1.52344,9.0039 1.02864,1.99219 2.55858,2.98829 4.58984,2.98828 2.04426,1e-5 3.57421,-0.99609 4.58985,-2.98828 1.02862,-2.0052 1.54295,-5.0065 1.54297,-9.0039 -2e-5,-4.0104 -0.51435,-7.0117 -1.54297,-9.00391 -1.01564,-2.00518 -2.54559,-3.00779 -4.58985,-3.00781 m 0,-3.125 c 3.26822,3e-5 5.7617,1.2956 7.48047,3.88672 1.73175,2.57814 2.59764,6.32814 2.59766,11.25 -2e-5,4.90886 -0.86591,8.65886 -2.59766,11.25 -1.71877,2.57812 -4.21225,3.86718 -7.48047,3.86718 -3.26823,0 -5.76823,-1.28906 -7.5,-3.86718 -1.71875,-2.59114 -2.57812,-6.34114 -2.57812,-11.25 0,-4.92186 0.85937,-8.67186 2.57812,-11.25 1.73177,-2.59112 4.23177,-3.88669 7.5,-3.88672" />
        <path
           inkscape:connector-curvature="0"
           id="path4636"
           d="m 426.74609,240.75278 4.1211,0 0,4.96094 -4.1211,0 0,-4.96094" />
        <path
           inkscape:connector-curvature="0"
           id="path4638"
           d="m 447.91797,219.15122 c -2.03126,2e-5 -3.56121,1.00263 -4.58985,3.00781 -1.01563,1.99221 -1.52344,4.99351 -1.52343,9.00391 -10e-6,3.9974 0.5078,6.9987 1.52343,9.0039 1.02864,1.99219 2.55859,2.98829 4.58985,2.98828 2.04425,1e-5 3.5742,-0.99609 4.58984,-2.98828 1.02863,-2.0052 1.54295,-5.0065 1.54297,-9.0039 -2e-5,-4.0104 -0.51434,-7.0117 -1.54297,-9.00391 -1.01564,-2.00518 -2.54559,-3.00779 -4.58984,-3.00781 m 0,-3.125 c 3.26821,3e-5 5.7617,1.2956 7.48047,3.88672 1.73175,2.57814 2.59763,6.32814 2.59765,11.25 -2e-5,4.90886 -0.8659,8.65886 -2.59765,11.25 -1.71877,2.57812 -4.21226,3.86718 -7.48047,3.86718 -3.26824,0 -5.76824,-1.28906 -7.5,-3.86718 -1.71875,-2.59114 -2.57813,-6.34114 -2.57813,-11.25 0,-4.92186 0.85938,-8.67186 2.57813,-11.25 1.73176,-2.59112 4.23176,-3.88669 7.5,-3.88672" />
        <path
           inkscape:connector-curvature="0"
           id="path4640"
           d="m 465.63281,242.3934 6.44531,0 0,-22.24609 -7.01171,1.40625 0,-3.59375 6.97265,-1.40625 3.94531,0 0,25.83984 6.44532,0 0,3.32032 -16.79688,0 0,-3.32032" />
        <path
           inkscape:connector-curvature="0"
           id="path4642"
           d="m 508.93359,218.79965 0,4.16016 c -1.18491,-1.36716 -2.33075,-2.34372 -3.4375,-2.92969 -1.09376,-0.58591 -2.3047,-0.87888 -3.63281,-0.8789 -2.04428,2e-5 -3.72397,0.65106 -5.03906,1.95312 -1.31511,1.30211 -2.181,3.1706 -2.59766,5.60547 l 11.26953,0 -1.07422,2.40234 -10.50781,0 c -0.026,0.31252 -0.0456,0.61851 -0.0586,0.91797 -10e-6,0.2995 -10e-6,0.6771 0,1.13282 -10e-6,0.41668 -10e-6,0.77475 0,1.07421 0.013,0.2995 0.0325,0.60549 0.0586,0.91797 l 8.71094,0 -1.09375,2.40235 -7.30469,0 c 0.41666,2.4349 1.28255,4.3099 2.59766,5.625 1.31509,1.3151 2.99478,1.97266 5.03906,1.97265 1.32811,1e-5 2.53905,-0.29296 3.63281,-0.8789 1.10675,-0.58594 2.25259,-1.5625 3.4375,-2.92969 l 0,4.12109 c -1.15887,0.9375 -2.34377,1.64063 -3.55468,2.10938 -1.19794,0.46875 -2.4219,0.70312 -3.67188,0.70312 -3.08595,0 -5.63803,-0.94401 -7.65625,-2.83203 -2.00521,-1.88802 -3.26823,-4.51822 -3.78906,-7.89062 l -4.1211,0 1.07422,-2.40235 2.71485,0 c -10e-6,-0.29946 -0.007,-0.59894 -0.0195,-0.89843 -10e-6,-0.31249 -10e-6,-0.67707 0,-1.09375 -10e-6,-0.45572 -10e-6,-0.83332 0,-1.13282 0.013,-0.31248 0.0195,-0.61847 0.0195,-0.91797 l -3.78907,0 1.07422,-2.40234 3.04688,0 c 0.52083,-3.34633 1.79036,-5.96352 3.80859,-7.85156 2.01822,-1.88799 4.56379,-2.832 7.63672,-2.83203 1.27603,3e-5 2.513,0.2344 3.71094,0.70312 1.21092,0.45576 2.38279,1.14586 3.51562,2.07031" />
      </g>
    </g>
    <text
       xml:space="preserve"
       style="font-size:90.95724487px;font-style:normal;font-variant:normal;font-weight:normal;font-stretch:normal;line-height:125%;letter-spacing:0px;word-spacing:0px;fill:#000000;fill-opacity:1;stroke:none;font-family:Sans;-inkscape-font-specification:Helvetica"
       x="122.8149"
       y="-156.67657"
       id="text3018"
       sodipodi:linespacing="125%"><tspan
         sodipodi:role="line"
         id="tspan3020"
         x="122.8149"
         y="-156.67657">Prioprepare</tspan></text>
    <text
       xml:space="preserve"
       style="font-size:33.88212967px;font-style:normal;font-variant:normal;font-weight:normal;font-stretch:normal;line-height:125%;letter-spacing:0px;word-spacing:0px;fill:#4d4d4d;fill-opacity:1;stroke:none;font-family:Sans;-inkscape-font-specification:Helvetica"
       x="128.41652"
       y="-80.436195"
       id="text3022"
       sodipodi:linespacing="125%"><tspan
         sodipodi:role="line"
         id="tspan3024"
         x="128.41652"
         y="-80.436195"
         style="font-style:normal;font-variant:normal;font-weight:normal;font-stretch:normal;fill:#4d4d4d;font-family:Sans;-inkscape-font-specification:Helvetica">Priority for everyone</tspan></text>
  </g>
</svg>
