<?xml version="1.0" encoding="UTF-8" standalone="no"?>
<!-- Created with Inkscape (http://www.inkscape.org/) -->

<svg
   xmlns:dc="http://purl.org/dc/elements/1.1/"
   xmlns:cc="http://creativecommons.org/ns#"
   xmlns:rdf="http://www.w3.org/1999/02/22-rdf-syntax-ns#"
   xmlns:svg="http://www.w3.org/2000/svg"
   xmlns="http://www.w3.org/2000/svg"
   xmlns:sodipodi="http://sodipodi.sourceforge.net/DTD/sodipodi-0.dtd"
   xmlns:inkscape="http://www.inkscape.org/namespaces/inkscape"
   width="440"
   height="280"
   id="svg2"
   version="1.1"
   inkscape:version="0.48.2 r9819"
   sodipodi:docname="promotional-small.svg"
   inkscape:export-filename="/Users/steren/Work/prioprepare-web/marketing-chrome-store/promotional-small.png"
   inkscape:export-xdpi="90"
   inkscape:export-ydpi="90">
  <defs
     id="defs4" />
  <sodipodi:namedview
     id="base"
     pagecolor="#ffffff"
     bordercolor="#666666"
     borderopacity="1.0"
     inkscape:pageopacity="1"
     inkscape:pageshadow="2"
     inkscape:zoom="1.4"
     inkscape:cx="260.51441"
     inkscape:cy="174.55135"
     inkscape:document-units="px"
     inkscape:current-layer="layer1"
     showgrid="false"
     inkscape:window-width="1676"
     inkscape:window-height="1006"
     inkscape:window-x="89"
     inkscape:window-y="47"
     inkscape:window-maximized="0"
     fit-margin-top="20"
     fit-margin-left="20"
     fit-margin-right="20"
     fit-margin-bottom="20"
     showguides="true"
     inkscape:guide-bbox="true">
    <sodipodi:guide
       orientation="0,1"
       position="447.85714,-22.857143"
       id="guide4699" />
    <sodipodi:guide
       orientation="1,0"
       position="492.14285,235.35714"
       id="guide4701" />
    <sodipodi:guide
       orientation="1,0"
       position="29.285714,89.285714"
       id="guide3070" />
    <sodipodi:guide
       orientation="1,0"
       position="410.71428,129.28571"
       id="guide3072" />
  </sodipodi:namedview>
  <metadata
     id="metadata7">
    <rdf:RDF>
      <cc:Work
         rdf:about="">
        <dc:format>image/svg+xml</dc:format>
        <dc:type
           rdf:resource="http://purl.org/dc/dcmitype/StillImage" />
        <dc:title></dc:title>
      </cc:Work>
    </rdf:RDF>
  </metadata>
  <g
     inkscape:label="Layer 1"
     inkscape:groupmode="layer"
     id="layer1"
     transform="translate(-64.263123,-80.109095)">
    <g
       id="g3309"
       transform="matrix(1.4109722,0,0,1.3285714,93.97638,113.68053)">
      <path
         id="path3295"
         d="M 42.476,0 H 0 V 100 H 68.75 V 24.085 L 42.476,0 z M 43.75,6.82 61.312,22.917 H 43.75 V 6.82 z M 4.167,95.833 V 4.167 h 35.417 v 22.917 h 25 V 95.833 H 4.167 z"
         inkscape:connector-curvature="0"
         style="fill:#000000" />
      <path
         id="path3297"
         d="m 16.668,52.836 c -0.12,0 -0.241,-0.01 -0.363,-0.032 -1.133,-0.199 -1.89,-1.279 -1.69,-2.413 2.479,-14.08 11.056,-17.686 15.948,-18.581 8.183,-1.493 16.499,2.263 19.144,6.71 0.588,0.989 0.264,2.267 -0.726,2.854 -0.99,0.59 -2.268,0.261 -2.855,-0.727 -1.629,-2.74 -8.212,-5.942 -14.812,-4.74 -4.675,0.856 -10.656,4.191 -12.595,15.208 -0.179,1.009 -1.058,1.721 -2.051,1.721 z"
         inkscape:connector-curvature="0"
         style="fill:#000000" />
      <path
         id="path3299"
         d="m 33.896,78.525 c -0.883,0 -1.781,-0.066 -2.695,-0.205 -8.193,-1.23 -15.325,-7.886 -16.59,-15.479 -0.189,-1.135 0.578,-2.207 1.712,-2.396 1.138,-0.205 2.207,0.58 2.397,1.713 0.965,5.792 6.72,11.082 13.1,12.042 3.468,0.515 9.939,0.118 14.231,-8.465 2.072,-4.145 -0.576,-14.483 -6.122,-19.379 -3.114,-2.749 -6.349,-3.048 -9.609,-0.873 -2.54,1.693 -5.188,6.55 -5.08,11.076 0.084,3.583 1.766,6.382 4.997,8.321 1.097,0.657 4.222,1.076 6.041,-0.206 1.423,-1.003 1.847,-3.001 1.261,-5.933 -0.462,-2.305 -2.57,-6.4 -3.579,-6.543 0.005,0.002 -0.363,0.116 -0.979,1.04 -0.496,0.742 -0.977,3.516 -0.327,4.73 0.121,0.228 0.227,0.364 0.677,0.364 1.15,0 2.083,0.932 2.083,2.083 0,1.151 -0.931,2.085 -2.081,2.085 -1.92,0 -3.465,-0.909 -4.35,-2.563 -1.487,-2.779 -0.678,-7.191 0.533,-9.009 1.878,-2.815 3.893,-3.088 5.254,-2.815 4.713,0.932 6.838,9.725 6.855,9.812 1.171,5.851 -0.956,8.752 -2.946,10.156 -3.359,2.368 -8.306,1.739 -10.584,0.372 -5.65,-3.39 -6.936,-8.284 -7.019,-11.794 -0.153,-6.406 3.458,-12.325 6.935,-14.643 4.814,-3.21 10.166,-2.767 14.678,1.215 6.624,5.848 10.202,18.146 7.091,24.367 -3.528,7.054 -9.222,10.927 -15.884,10.927 z"
         inkscape:connector-curvature="0"
         style="fill:#000000" />
      <path
         id="path3301"
         d="m 33.258,87.354 c -2.129,0 -4.036,-0.297 -5.639,-0.698 -5.237,-1.308 -10.097,-4.532 -12.686,-8.416 -0.638,-0.959 -0.379,-2.251 0.578,-2.89 0.955,-0.639 2.249,-0.378 2.889,0.578 3.396,5.095 14.59,11.381 26.277,3.589 0.957,-0.637 2.25,-0.381 2.889,0.578 0.638,0.958 0.38,2.25 -0.577,2.889 -5.001,3.333 -9.755,4.37 -13.731,4.37 z"
         inkscape:connector-curvature="0"
         style="fill:#000000" />
    </g>
    <text
       xml:space="preserve"
       style="font-size:45.72149277px;font-style:normal;font-variant:normal;font-weight:normal;font-stretch:normal;line-height:125%;letter-spacing:0px;word-spacing:0px;fill:#000000;fill-opacity:1;stroke:none;font-family:Sans;-inkscape-font-specification:Helvetica"
       x="213.38162"
       y="204.72269"
       id="text3037"
       sodipodi:linespacing="125%"><tspan
         sodipodi:role="line"
         id="tspan3039"
         x="213.38162"
         y="204.72269"
         style="font-style:normal;font-variant:normal;font-weight:normal;font-stretch:normal;font-family:Sans;-inkscape-font-specification:Helvetica">Prioprepare</tspan></text>
    <text
       sodipodi:linespacing="125%"
       id="text3066"
       y="313.81445"
       x="95.548836"
       style="font-size:69.60803223px;font-style:normal;font-variant:normal;font-weight:normal;font-stretch:normal;line-height:125%;letter-spacing:0px;word-spacing:0px;fill:#666666;fill-opacity:1;stroke:none;font-family:Sans;-inkscape-font-specification:Helvetica"
       xml:space="preserve"><tspan
         style="font-size:36.53845596px;font-style:normal;font-variant:normal;font-weight:normal;font-stretch:normal;fill:#666666;font-family:Sans;-inkscape-font-specification:Helvetica"
         y="313.81445"
         x="95.548836"
         id="tspan3068"
         sodipodi:role="line">Priority for everyone</tspan></text>
  </g>
</svg>
